<svg width="633" height="126" viewBox="0 0 633 126" fill="none" xmlns="http://www.w3.org/2000/svg">
<g filter="url(#filter0_d)">
<path d="M71.848 116L51.256 85.04L33.112 116H5.176L37.576 64.592L4.456 14.912H33.112L53.416 45.44L71.272 14.912H99.208L67.096 65.888L100.504 116H71.848Z" fill="#3A75E6"/>
<path d="M107.97 75.824C107.97 67.472 109.65 60.176 113.01 53.936C116.466 47.696 121.218 42.896 127.266 39.536C133.41 36.176 140.418 34.496 148.29 34.496C158.37 34.496 166.77 37.136 173.49 42.416C180.306 47.696 184.77 55.136 186.882 64.736H160.674C158.466 58.592 154.194 55.52 147.858 55.52C143.346 55.52 139.746 57.296 137.058 60.848C134.37 64.304 133.026 69.296 133.026 75.824C133.026 82.352 134.37 87.392 137.058 90.944C139.746 94.4 143.346 96.128 147.858 96.128C154.194 96.128 158.466 93.056 160.674 86.912H186.882C184.77 96.32 180.306 103.712 173.49 109.088C166.674 114.464 158.274 117.152 148.29 117.152C140.418 117.152 133.41 115.472 127.266 112.112C121.218 108.752 116.466 103.952 113.01 97.712C109.65 91.472 107.97 84.176 107.97 75.824ZM224.677 9.44V116H200.053V9.44H224.677ZM321.866 35.648V116H297.242V105.056C294.746 108.608 291.338 111.488 287.018 113.696C282.794 115.808 278.09 116.864 272.906 116.864C266.762 116.864 261.338 115.52 256.634 112.832C251.93 110.048 248.282 106.064 245.69 100.88C243.098 95.696 241.802 89.6 241.802 82.592V35.648H266.282V79.28C266.282 84.656 267.674 88.832 270.458 91.808C273.242 94.784 276.986 96.272 281.69 96.272C286.49 96.272 290.282 94.784 293.066 91.808C295.85 88.832 297.242 84.656 297.242 79.28V35.648H321.866ZM372.241 117.152C365.233 117.152 358.993 115.952 353.521 113.552C348.049 111.152 343.729 107.888 340.561 103.76C337.393 99.536 335.617 94.832 335.233 89.648H359.569C359.857 92.432 361.153 94.688 363.457 96.416C365.761 98.144 368.593 99.008 371.953 99.008C375.025 99.008 377.377 98.432 379.009 97.28C380.737 96.032 381.601 94.448 381.601 92.528C381.601 90.224 380.401 88.544 378.001 87.488C375.601 86.336 371.713 85.088 366.337 83.744C360.577 82.4 355.777 81.008 351.937 79.568C348.097 78.032 344.785 75.68 342.001 72.512C339.217 69.248 337.825 64.88 337.825 59.408C337.825 54.8 339.073 50.624 341.569 46.88C344.161 43.04 347.905 40.016 352.801 37.808C357.793 35.6 363.697 34.496 370.513 34.496C380.593 34.496 388.513 36.992 394.273 41.984C400.129 46.976 403.489 53.6 404.353 61.856H381.601C381.217 59.072 379.969 56.864 377.857 55.232C375.841 53.6 373.153 52.784 369.793 52.784C366.913 52.784 364.705 53.36 363.169 54.512C361.633 55.568 360.865 57.056 360.865 58.976C360.865 61.28 362.065 63.008 364.465 64.16C366.961 65.312 370.801 66.464 375.985 67.616C381.937 69.152 386.785 70.688 390.529 72.224C394.273 73.664 397.537 76.064 400.321 79.424C403.201 82.688 404.689 87.104 404.785 92.672C404.785 97.376 403.441 101.6 400.753 105.344C398.161 108.992 394.369 111.872 389.377 113.984C384.481 116.096 378.769 117.152 372.241 117.152ZM432.234 27.296C427.914 27.296 424.362 26.048 421.578 23.552C418.89 20.96 417.546 17.792 417.546 14.048C417.546 10.208 418.89 7.04 421.578 4.54399C424.362 1.95199 427.914 0.655993 432.234 0.655993C436.458 0.655993 439.914 1.95199 442.602 4.54399C445.386 7.04 446.778 10.208 446.778 14.048C446.778 17.792 445.386 20.96 442.602 23.552C439.914 26.048 436.458 27.296 432.234 27.296ZM444.474 35.648V116H419.85V35.648H444.474ZM498.463 92.96L515.887 35.648H542.095L513.583 116H483.199L454.687 35.648H481.039L498.463 92.96ZM628.203 74.528C628.203 76.832 628.059 79.232 627.771 81.728H572.043C572.427 86.72 574.011 90.56 576.795 93.248C579.675 95.84 583.179 97.136 587.307 97.136C593.451 97.136 597.723 94.544 600.123 89.36H626.331C624.987 94.64 622.539 99.392 618.987 103.616C615.531 107.84 611.163 111.152 605.883 113.552C600.603 115.952 594.699 117.152 588.171 117.152C580.299 117.152 573.291 115.472 567.147 112.112C561.003 108.752 556.203 103.952 552.747 97.712C549.291 91.472 547.563 84.176 547.563 75.824C547.563 67.472 549.243 60.176 552.603 53.936C556.059 47.696 560.859 42.896 567.003 39.536C573.147 36.176 580.203 34.496 588.171 34.496C595.947 34.496 602.859 36.128 608.907 39.392C614.955 42.656 619.659 47.312 623.019 53.36C626.475 59.408 628.203 66.464 628.203 74.528ZM603.003 68.048C603.003 63.824 601.563 60.464 598.683 57.968C595.803 55.472 592.203 54.224 587.883 54.224C583.755 54.224 580.251 55.424 577.371 57.824C574.587 60.224 572.859 63.632 572.187 68.048H603.003Z" fill="#202020"/>
</g>
<defs>
<filter id="filter0_d" x="0.456001" y="0.655991" width="631.747" height="124.496" filterUnits="userSpaceOnUse" color-interpolation-filters="sRGB">
<feFlood flood-opacity="0" result="BackgroundImageFix"/>
<feColorMatrix in="SourceAlpha" type="matrix" values="0 0 0 0 0 0 0 0 0 0 0 0 0 0 0 0 0 0 127 0"/>
<feOffset dy="4"/>
<feGaussianBlur stdDeviation="2"/>
<feColorMatrix type="matrix" values="0 0 0 0 0 0 0 0 0 0 0 0 0 0 0 0 0 0 0.25 0"/>
<feBlend mode="normal" in2="BackgroundImageFix" result="effect1_dropShadow"/>
<feBlend mode="normal" in="SourceGraphic" in2="effect1_dropShadow" result="shape"/>
</filter>
</defs>
</svg>
